<svg width="30" height="30" viewBox="0 0 30 30" fill="none" xmlns="http://www.w3.org/2000/svg">
<path d="M29.7336 18.1986C29.6453 17.9842 29.4952 17.801 29.3024 17.6721C29.1096 17.5433 28.8828 17.4748 28.6509 17.4752L25.075 17.4758V1.40625C25.075 0.630879 24.4441 0 23.6687 0H13.4447C12.6694 0 12.0385 0.630879 12.0385 1.40625V5.38125C11.3093 5.21189 10.5631 5.12657 9.81445 5.12695C4.40273 5.12695 0 9.52969 0 14.9414C0 20.3531 4.40273 24.7559 9.81445 24.7559C10.7566 24.7559 11.6681 24.6221 12.5312 24.3731L17.7281 29.57C17.8367 29.6791 17.9658 29.7657 18.1081 29.8246C18.2503 29.8835 18.4028 29.9136 18.5568 29.9132C18.8698 29.9132 19.1641 29.7913 19.3854 29.57L29.4796 19.4758C29.6439 19.3122 29.7558 19.1033 29.801 18.8759C29.8463 18.6485 29.8228 18.4127 29.7336 18.1987V18.1986ZM0.9375 14.9414C0.9375 10.0467 4.91965 6.06445 9.81445 6.06445C14.7093 6.06445 18.6914 10.0467 18.6914 14.9414C18.6914 19.8362 14.7093 23.8184 9.81445 23.8184C4.91965 23.8184 0.9375 19.8362 0.9375 14.9414ZM28.8167 18.8128L18.7225 28.9071C18.7007 28.9289 18.6749 28.9462 18.6465 28.9579C18.618 28.9697 18.5875 28.9757 18.5568 28.9757C18.5205 28.9757 18.4507 28.9668 18.391 28.907L13.5148 24.0309C17.0977 22.567 19.6289 19.0445 19.6289 14.9414C19.6289 10.6354 16.8413 6.96826 12.976 5.64949V1.40625C12.976 1.14779 13.1863 0.9375 13.4447 0.9375H23.6688C23.9272 0.9375 24.1375 1.14779 24.1375 1.40625V17.4752C24.1375 17.9921 24.558 18.4127 25.075 18.4127H28.651C28.7923 18.4127 28.8495 18.5139 28.8675 18.5575C28.8855 18.6009 28.9166 18.7129 28.8167 18.8128Z" fill="white"/>
<path d="M9.39389 12.0551H10.2342C10.7815 12.0551 11.2268 12.5004 11.2268 13.0477C11.2268 13.172 11.2762 13.2913 11.3641 13.3792C11.452 13.4671 11.5712 13.5165 11.6956 13.5165C11.8199 13.5165 11.9391 13.4671 12.027 13.3792C12.1149 13.2913 12.1643 13.172 12.1643 13.0477C12.1643 11.9997 11.3246 11.1448 10.2828 11.1189V10.6699C10.2828 10.5456 10.2334 10.4264 10.1455 10.3385C10.0576 10.2506 9.93838 10.2012 9.81406 10.2012C9.68974 10.2012 9.57051 10.2506 9.48261 10.3385C9.3947 10.4264 9.34531 10.5456 9.34531 10.6699V11.1189C8.30352 11.1448 7.46387 11.9997 7.46387 13.0477V13.4801C7.46387 14.5443 8.32965 15.4101 9.39389 15.4101H10.2342C10.7815 15.4101 11.2268 15.8554 11.2268 16.4027V16.835C11.2268 17.3823 10.7815 17.8276 10.2342 17.8276H9.39395C8.84668 17.8276 8.40137 17.3823 8.40137 16.835V16.7945C8.40137 16.6702 8.35198 16.551 8.26407 16.4631C8.17617 16.3752 8.05694 16.3258 7.93262 16.3258C7.8083 16.3258 7.68907 16.3752 7.60116 16.4631C7.51325 16.551 7.46387 16.6702 7.46387 16.7945V16.835C7.46387 17.883 8.30357 18.7379 9.34537 18.7638V19.2128C9.34537 19.3371 9.39476 19.4563 9.48267 19.5442C9.57057 19.6321 9.6898 19.6815 9.81412 19.6815C9.93844 19.6815 10.0577 19.6321 10.1456 19.5442C10.2335 19.4563 10.2829 19.3371 10.2829 19.2128V18.7638C11.3247 18.7379 12.1643 17.883 12.1643 16.835V16.4026C12.1643 15.3384 11.2985 14.4726 10.2343 14.4726H9.39395C8.84668 14.4726 8.40137 14.0273 8.40137 13.48V13.0477C8.40137 12.5004 8.84668 12.0551 9.39395 12.0551H9.39389Z" fill="white"/>
<path d="M9.81473 7.59448C5.76355 7.59448 2.46777 10.8904 2.46777 14.9414C2.46777 18.9925 5.76361 22.2884 9.81473 22.2884C13.8658 22.2884 17.1617 18.9925 17.1617 14.9414C17.1617 10.8904 13.8658 7.59448 9.81473 7.59448ZM9.81473 21.3509C6.28059 21.3509 3.40527 18.4756 3.40527 14.9414C3.40527 11.4073 6.28059 8.53198 9.81473 8.53198C13.3489 8.53198 16.2242 11.4073 16.2242 14.9414C16.2242 18.4756 13.3489 21.3509 9.81473 21.3509Z" fill="white"/>
</svg>
