<svg width="30" height="30" viewBox="0 0 30 30" fill="none" xmlns="http://www.w3.org/2000/svg">
<path d="M24.8334 7.00594L18.2812 3.01781V0.46875C18.2812 0.34443 18.2319 0.225201 18.144 0.137294C18.056 0.049386 17.9368 0 17.8125 0H14.0625C13.9382 0 13.819 0.049386 13.731 0.137294C13.6431 0.225201 13.5938 0.34443 13.5938 0.46875V3.02391C12.8742 3.51014 12.2845 4.16497 11.8759 4.93134C11.4674 5.6977 11.2525 6.55234 11.25 7.42078V8.90625L8.25 6.65625C8.16886 6.5954 8.07017 6.5625 7.96875 6.5625H1.875C1.75068 6.5625 1.63145 6.61189 1.54354 6.69979C1.45564 6.7877 1.40625 6.90693 1.40625 7.03125V8.90625C1.4069 9.02345 1.45179 9.13608 1.53192 9.2216C1.61206 9.30712 1.72153 9.35923 1.83844 9.3675C1.71499 10.2288 1.25642 11.0064 0.5625 11.5312L0.1875 11.8125C0.108794 11.8715 0.0506562 11.9538 0.0213218 12.0477C-0.00801267 12.1416 -0.00705653 12.2424 0.0240547 12.3357C0.055166 12.4291 0.114855 12.5102 0.194667 12.5678C0.274479 12.6253 0.370368 12.6562 0.46875 12.6562H0.9375C1.77195 12.6547 2.5821 12.3752 3.23991 11.8617C3.89773 11.3483 4.36569 10.6303 4.56984 9.82125L5.38313 11.7188H5.15625C5.03193 11.7188 4.9127 11.7681 4.82479 11.856C4.73689 11.944 4.6875 12.0632 4.6875 12.1875V14.0625C4.6875 14.1868 4.73689 14.306 4.82479 14.394C4.9127 14.4819 5.03193 14.5312 5.15625 14.5312H5.625V15.1237C5.62499 15.1404 5.62038 15.1566 5.6117 15.1708C5.60301 15.1849 5.59058 15.1964 5.57578 15.2039C5.30898 15.3373 5.08459 15.5423 4.92776 15.796C4.77093 16.0497 4.68786 16.3421 4.68786 16.6404C4.68786 16.9387 4.77093 17.231 4.92776 17.4848C5.08459 17.7385 5.30898 17.9435 5.57578 18.0769C5.59067 18.0845 5.60318 18.096 5.61195 18.1102C5.62071 18.1244 5.62539 18.1408 5.62547 18.1575C5.62511 18.2573 5.59903 18.3553 5.54977 18.4421C5.50051 18.5289 5.42972 18.6015 5.34422 18.653L4.71422 19.0308C4.27809 19.2942 3.91716 19.6656 3.66618 20.109C3.4152 20.5524 3.28263 21.053 3.28125 21.5625V28.5938C3.28125 28.7181 3.33064 28.8373 3.41854 28.9252C3.50645 29.0131 3.62568 29.0625 3.75 29.0625H11.7188C11.8431 29.0625 11.9623 29.0131 12.0502 28.9252C12.1381 28.8373 12.1875 28.7181 12.1875 28.5938V28.5816C12.5908 28.8918 13.0849 29.0608 13.5938 29.0625H26.7188C27.3401 29.0618 27.9358 28.8146 28.3752 28.3752C28.8146 27.9358 29.0618 27.3401 29.0625 26.7188V14.5312C29.0578 13.0204 28.6667 11.5358 27.9265 10.2187C27.1863 8.90154 26.1215 7.79559 24.8334 7.00594ZM14.5312 0.9375H17.3438V2.8125H14.5312V0.9375ZM11.25 22.0312V26.25H4.21875V22.0312H11.25ZM12.1875 20.1562H28.125V25.7812H12.1875V20.1562ZM11.25 16.6242C10.9021 15.8683 10.4612 15.1587 9.9375 14.512C10.0423 14.4919 10.1369 14.4361 10.2052 14.3542C10.2736 14.2723 10.3115 14.1692 10.3125 14.0625V12.1875C10.3125 12.0632 10.2631 11.944 10.1752 11.856C10.0873 11.7681 9.96807 11.7188 9.84375 11.7188H9.375V11.1192L11.25 10.4939V16.6242ZM5.625 13.5938V12.6562H9.375V13.5938H5.625ZM1.875 11.5589C2.37815 10.9315 2.69299 10.1742 2.78297 9.375H3.70922C3.62519 9.86919 3.41094 10.3321 3.08854 10.7159C2.76614 11.0998 2.34725 11.3908 1.875 11.5589ZM5.12063 8.72156C5.08433 8.63689 5.02389 8.56479 4.94686 8.51427C4.86983 8.46375 4.77962 8.43705 4.6875 8.4375H2.34375V7.5H7.81266L10.7217 9.68203L8.75813 10.3383C8.66505 10.3693 8.58405 10.4287 8.52653 10.5082C8.46901 10.5876 8.43787 10.6831 8.4375 10.7812V11.7188H6.40266L5.12063 8.72156ZM5.19891 19.8342L5.82937 19.4592C6.05305 19.3234 6.23799 19.1324 6.3664 18.9044C6.4948 18.6764 6.56234 18.4192 6.5625 18.1575C6.56308 17.9666 6.51021 17.7794 6.40989 17.6171C6.30957 17.4547 6.16579 17.3236 5.99484 17.2388C5.8837 17.1832 5.79022 17.0978 5.72488 16.9921C5.65955 16.8864 5.62494 16.7646 5.62494 16.6404C5.62494 16.5161 5.65955 16.3943 5.72488 16.2887C5.79022 16.183 5.8837 16.0976 5.99484 16.042C6.16576 15.9572 6.30951 15.8263 6.40983 15.664C6.51016 15.5017 6.56304 15.3145 6.5625 15.1237V14.5312H8.69953C10.3395 16.2262 11.2544 18.4935 11.25 20.8519V21.0938H4.27734C4.33982 20.8335 4.45322 20.5882 4.61099 20.3721C4.76876 20.1559 4.96778 19.9731 5.19656 19.8342H5.19891ZM4.21875 28.125V27.1875H11.25V28.125H4.21875ZM26.7188 28.125H13.5938C13.2208 28.125 12.8631 27.9768 12.5994 27.7131C12.3357 27.4494 12.1875 27.0917 12.1875 26.7188H28.125C28.125 27.0917 27.9768 27.4494 27.7131 27.7131C27.4494 27.9768 27.0917 28.125 26.7188 28.125ZM28.125 19.2188H12.1875V7.42078C12.1896 6.68996 12.3745 5.97127 12.7253 5.33015C13.0761 4.68902 13.5817 4.14582 14.1961 3.75H17.6813L24.3459 7.80703C25.4968 8.51273 26.4482 9.50097 27.1096 10.6779C27.771 11.8548 28.1206 13.1812 28.125 14.5312V19.2188Z" fill="white"/>
<path d="M23.8069 8.84109L22.1709 7.80047C21.8804 7.61597 21.5457 7.51286 21.2017 7.50193C20.8577 7.49099 20.5171 7.57262 20.2154 7.7383C19.9138 7.90398 19.6622 8.14762 19.4868 8.44377C19.3115 8.73992 19.2189 9.07772 19.2188 9.42188V12.6562C19.2208 13.3804 19.5083 14.0745 20.0189 14.588L22.912 17.4811C23.1651 17.7356 23.4661 17.9374 23.7977 18.0748C24.1293 18.2121 24.4848 18.2823 24.8438 18.2812H26.7188C26.8431 18.2812 26.9623 18.2319 27.0502 18.144C27.1381 18.056 27.1875 17.9368 27.1875 17.8125V15C27.1907 13.7713 26.8823 12.5619 26.2911 11.4848C25.6999 10.4077 24.8452 9.49808 23.8069 8.84109ZM26.25 17.3438H24.8438C24.608 17.3445 24.3744 17.2984 24.1566 17.2082C23.9388 17.118 23.7411 16.9855 23.5748 16.8183L20.6817 13.9252C20.3465 13.5878 20.1577 13.1319 20.1562 12.6562V9.42188C20.1566 9.2458 20.2041 9.07303 20.2939 8.92158C20.3838 8.77013 20.5125 8.64554 20.6669 8.5608C20.8212 8.47606 20.9955 8.43428 21.1715 8.4398C21.3475 8.44532 21.5188 8.49794 21.6675 8.59219L23.3034 9.63328C24.2083 10.2057 24.9532 10.9983 25.4685 11.9368C25.9838 12.8754 26.2527 13.9293 26.25 15V17.3438ZM15.9375 6.09375C14.625 6.09375 13.5938 7.53516 13.5938 9.375C13.5938 11.2148 14.625 12.6562 15.9375 12.6562C17.25 12.6562 18.2812 11.2148 18.2812 9.375C18.2812 7.53516 17.25 6.09375 15.9375 6.09375ZM15.9375 11.7188C15.1753 11.7188 14.5312 10.6453 14.5312 9.375C14.5312 8.10469 15.1753 7.03125 15.9375 7.03125C16.6997 7.03125 17.3438 8.10469 17.3438 9.375C17.3438 10.6453 16.6997 11.7188 15.9375 11.7188Z" fill="white"/>
</svg>
