<svg width="28" height="29" viewBox="0 0 28 29" fill="none" xmlns="http://www.w3.org/2000/svg">
<path d="M25.027 13.6641C24.9185 13.6034 24.7903 13.5883 24.6707 13.6222C24.551 13.656 24.4497 13.736 24.3891 13.8445C24.3284 13.9531 24.3133 14.0813 24.3472 14.2009C24.381 14.3205 24.461 14.4218 24.5695 14.4825C25.0786 14.7672 25.5026 15.1823 25.7979 15.6852C26.0933 16.1881 26.2493 16.7605 26.25 17.3438V27.6563C26.25 27.7806 26.2994 27.8998 26.3873 27.9877C26.4752 28.0756 26.5944 28.125 26.7188 28.125C26.8431 28.125 26.9623 28.0756 27.0502 27.9877C27.1381 27.8998 27.1875 27.7806 27.1875 27.6563V17.3438C27.1868 16.5938 26.9863 15.8575 26.6066 15.2107C26.2269 14.564 25.6816 14.0301 25.027 13.6641ZM21.1575 12.1983C22.0274 11.3235 22.5156 10.1399 22.5155 8.90625H22.9688C23.7441 8.90625 24.375 8.27532 24.375 7.5V7.03125C24.3739 6.72165 24.2707 6.42106 24.0812 6.17618C23.8918 5.9313 23.6268 5.75583 23.3273 5.67704C23.4002 5.43642 23.4373 5.18641 23.4375 4.935V4.52813C23.4375 3.56063 23.1323 2.63438 22.5553 1.84969C22.4811 1.75103 22.371 1.68562 22.2488 1.66768C22.1267 1.64973 22.0024 1.6807 21.9029 1.75385C21.8035 1.827 21.7369 1.93643 21.7177 2.05838C21.6984 2.18032 21.7281 2.30494 21.8002 2.40516C22.1924 2.93434 22.4302 3.56201 22.4869 4.21829H13.1381C13.2956 2.38266 14.8397 0.937035 16.7156 0.937035H18.9094C19.478 0.937035 20.0255 1.06922 20.5364 1.32985C20.5913 1.35783 20.6511 1.37473 20.7125 1.37958C20.7738 1.38444 20.8356 1.37717 20.8941 1.35817C20.9527 1.33917 21.007 1.30882 21.0538 1.26885C21.1006 1.22889 21.1391 1.18009 21.1671 1.12524C21.1951 1.07039 21.212 1.01057 21.2168 0.949191C21.2217 0.887812 21.2144 0.826077 21.1954 0.767511C21.1764 0.708945 21.1461 0.654694 21.1061 0.607857C21.0661 0.56102 21.0173 0.522513 20.9625 0.494535C20.3273 0.168602 19.6234 -0.000942334 18.9094 3.93937e-06H16.7156C14.2186 3.93937e-06 12.1875 2.03157 12.1875 4.52813V4.935C12.1875 5.19282 12.2269 5.44172 12.2977 5.67704C11.9982 5.75583 11.7332 5.9313 11.5438 6.17618C11.3543 6.42106 11.2511 6.72165 11.25 7.03125V7.5C11.25 8.27532 11.8809 8.90625 12.6562 8.90625H13.125C13.125 10.4344 13.8638 11.79 15 12.6464V13.125H14.1089C13.9411 12.8372 13.6411 12.6563 13.3041 12.6563H12.8798C12.5681 12.6563 12.278 12.8105 12.1036 13.0683C11.9985 13.2271 11.9446 13.4142 11.9489 13.6045C11.2823 13.9702 10.733 14.5172 10.3927 15.1978L7.99359 19.9955L6.97688 17.7089C7.00875 17.5917 7.03125 17.4708 7.03125 17.3438V14.5313C7.03032 14.2414 6.93971 13.9589 6.77186 13.7226C6.60401 13.4862 6.36714 13.3076 6.09375 13.2113V11.25H6.5625C8.11359 11.25 9.375 9.9886 9.375 8.4375V2.8125C9.375 2.68818 9.32561 2.56896 9.23771 2.48105C9.1498 2.39314 9.03057 2.34375 8.90625 2.34375H7.5C7.32234 2.34375 7.16016 2.44407 7.08047 2.60297L6.5625 3.63938L6.04453 2.60297C6.00555 2.52509 5.94566 2.45958 5.87157 2.4138C5.79747 2.36802 5.7121 2.34377 5.625 2.34375H0.46875C0.34443 2.34375 0.225201 2.39314 0.137294 2.48105C0.0493861 2.56896 0 2.68818 0 2.8125V5.15625C0 5.28057 0.0493861 5.3998 0.137294 5.48771C0.225201 5.57562 0.34443 5.625 0.46875 5.625C0.59307 5.625 0.712299 5.57562 0.800206 5.48771C0.888114 5.3998 0.9375 5.28057 0.9375 5.15625V3.28125H1.875V5.625C1.875 5.74932 1.92439 5.86855 2.01229 5.95646C2.1002 6.04437 2.21943 6.09375 2.34375 6.09375C2.46807 6.09375 2.5873 6.04437 2.67521 5.95646C2.76311 5.86855 2.8125 5.74932 2.8125 5.625V3.28125H3.75V4.6875C3.75 4.81182 3.79939 4.93105 3.88729 5.01896C3.9752 5.10687 4.09443 5.15625 4.21875 5.15625C4.34307 5.15625 4.4623 5.10687 4.55021 5.01896C4.63811 4.93105 4.6875 4.81182 4.6875 4.6875V3.28125H5.33531L6.14344 4.89704C6.30234 5.21485 6.82313 5.21485 6.98203 4.89704L7.78969 3.28125H8.4375V7.96875H7.03125V7.03125C7.03125 6.90693 6.98186 6.7877 6.89396 6.6998C6.80605 6.61189 6.68682 6.5625 6.5625 6.5625C6.43818 6.5625 6.31895 6.61189 6.23104 6.6998C6.14314 6.7877 6.09375 6.90693 6.09375 7.03125V7.96875H4.6875V7.03125C4.6875 6.90693 4.63811 6.7877 4.55021 6.6998C4.4623 6.61189 4.34307 6.5625 4.21875 6.5625C4.09443 6.5625 3.9752 6.61189 3.88729 6.6998C3.79939 6.7877 3.75 6.90693 3.75 7.03125V7.96875H2.8125V7.5C2.8125 7.37568 2.76311 7.25645 2.67521 7.16855C2.5873 7.08064 2.46807 7.03125 2.34375 7.03125C2.21943 7.03125 2.1002 7.08064 2.01229 7.16855C1.92439 7.25645 1.875 7.37568 1.875 7.5V7.96875H0.9375V7.03125C0.9375 6.90693 0.888114 6.7877 0.800206 6.6998C0.712299 6.61189 0.59307 6.5625 0.46875 6.5625C0.34443 6.5625 0.225201 6.61189 0.137294 6.6998C0.0493861 6.7877 0 6.90693 0 7.03125V8.4375C0 9.9886 1.26141 11.25 2.8125 11.25H3.28125V13.2113C3.00786 13.3076 2.77099 13.4862 2.60314 13.7226C2.43529 13.9589 2.34468 14.2414 2.34375 14.5313V17.3438C2.34375 17.9541 2.73703 18.4697 3.28125 18.6638V27.6563C3.28125 27.7806 3.33064 27.8998 3.41854 27.9877C3.50645 28.0756 3.62568 28.125 3.75 28.125C3.87432 28.125 3.99355 28.0756 4.08146 27.9877C4.16936 27.8998 4.21875 27.7806 4.21875 27.6563V18.75H5.15625V27.6563C5.15625 27.7806 5.20564 27.8998 5.29354 27.9877C5.38145 28.0756 5.50068 28.125 5.625 28.125C5.74932 28.125 5.86855 28.0756 5.95646 27.9877C6.04436 27.8998 6.09375 27.7806 6.09375 27.6563V24.6413C6.37219 24.8803 6.69562 25.0697 7.05609 25.1897C7.35047 25.2881 7.65328 25.3355 7.95375 25.3355C8.41721 25.3358 8.87396 25.2248 9.28558 25.0118C9.6972 24.7988 10.0516 24.4901 10.3191 24.1116L11.7188 22.1119V27.6563C11.7188 27.7806 11.7681 27.8998 11.856 27.9877C11.944 28.0756 12.0632 28.125 12.1875 28.125C12.3118 28.125 12.431 28.0756 12.519 27.9877C12.6069 27.8998 12.6562 27.7806 12.6562 27.6563V22.6903C13.7917 21.4949 14.4555 19.9285 14.5247 18.2813H21.0938V18.75C21.0938 20.2842 21.7903 21.7538 22.9688 22.7273V27.6563C22.9688 27.7806 23.0181 27.8998 23.106 27.9877C23.194 28.0756 23.3132 28.125 23.4375 28.125C23.5618 28.125 23.681 28.0756 23.769 27.9877C23.8569 27.8998 23.9062 27.7806 23.9062 27.6563V18.75C23.9062 18.6257 23.8569 18.5065 23.769 18.4185C23.681 18.3306 23.5618 18.2813 23.4375 18.2813C23.3132 18.2813 23.194 18.3306 23.106 18.4185C23.0181 18.5065 22.9688 18.6257 22.9688 18.75V21.3938C22.3652 20.6445 22.0346 19.7121 22.0312 18.75V17.903L23.6156 13.942C23.6728 13.7998 23.6942 13.6457 23.6779 13.4933C23.6616 13.3408 23.6081 13.1947 23.5222 13.0678C23.4362 12.9408 23.3204 12.8369 23.1849 12.7652C23.0495 12.6934 22.8985 12.656 22.7452 12.6563H22.3209C21.9839 12.6563 21.6839 12.8372 21.5161 13.125H20.625V12.6553C20.8111 12.5161 20.9906 12.3666 21.1575 12.1983ZM22.9688 6.5625C23.227 6.5625 23.4375 6.7725 23.4375 7.03125V7.5C23.4375 7.75875 23.227 7.96875 22.9688 7.96875H22.5103C22.5075 7.58625 22.5052 7.23047 22.5037 6.91313C22.6313 6.80766 22.7484 6.69047 22.8534 6.5625H22.9688ZM22.485 5.15625C22.431 5.54569 22.238 5.90248 21.9417 6.1609C21.6454 6.41931 21.2657 6.56194 20.8725 6.5625H14.7525C14.3593 6.56194 13.9796 6.41931 13.6833 6.1609C13.387 5.90248 13.194 5.54569 13.14 5.15625H22.485ZM12.6562 7.96875C12.398 7.96875 12.1875 7.75875 12.1875 7.5V7.03125C12.1875 6.7725 12.398 6.5625 12.6562 6.5625H12.7716C12.8775 6.69141 12.9961 6.81 13.125 6.91594V7.96875H12.6562ZM14.0625 8.90625V7.40297C14.2823 7.46438 14.5134 7.5 14.7525 7.5H20.8725C21.112 7.5 21.3427 7.46438 21.5625 7.40297V8.4375C21.5625 8.46328 21.5733 8.48532 21.577 8.51016L21.5803 8.84953C21.5871 9.34776 21.4943 9.84232 21.3072 10.3041C21.1201 10.766 20.8426 11.1857 20.4909 11.5388C20.1412 11.894 19.7241 12.1758 19.264 12.3676C18.8039 12.5595 18.3101 12.6574 17.8116 12.6558H17.8102C15.7434 12.6544 14.0625 10.9725 14.0625 8.90625ZM1.00406 8.90625H8.37094C8.16141 9.71297 7.43344 10.3125 6.5625 10.3125H2.8125C1.94156 10.3125 1.21359 9.71297 1.00406 8.90625ZM5.15625 11.25V13.125H4.21875V11.25H5.15625ZM3.28125 14.5313C3.28125 14.2725 3.49172 14.0625 3.75 14.0625H5.625C5.88328 14.0625 6.09375 14.2725 6.09375 14.5313V17.3438C6.09375 17.6025 5.88328 17.8125 5.625 17.8125H3.75C3.49172 17.8125 3.28125 17.6025 3.28125 17.3438V14.5313ZM12.6562 21.1702V20.625C12.6562 20.5254 12.6243 20.4283 12.5654 20.348C12.5064 20.2677 12.4234 20.2082 12.3283 20.1783C12.2333 20.1483 12.1312 20.1495 12.0368 20.1815C11.9425 20.2135 11.8608 20.2748 11.8036 20.3564L9.55125 23.5739C9.31078 23.9143 8.96747 24.1686 8.57177 24.2995C8.17607 24.4304 7.74883 24.4309 7.35281 24.3009C7.07389 24.2087 6.81976 24.0539 6.6099 23.8484C6.40003 23.6428 6.23999 23.392 6.14203 23.115L6.09375 22.9809V18.6638C6.17578 18.6347 6.25312 18.5981 6.32719 18.555L7.54031 21.2845C7.57637 21.3658 7.63478 21.4351 7.70873 21.4844C7.78268 21.5337 7.86912 21.5609 7.95797 21.563H7.96875C8.14594 21.563 8.30859 21.4627 8.38828 21.3038L11.2312 15.6173C11.4592 15.1635 11.8067 14.7803 12.2362 14.5092L13.5938 17.903V17.9733C13.5938 19.1245 13.2642 20.2238 12.6562 21.1702ZM14.3798 17.3438L12.8798 13.5938H13.3041L15.1791 17.3438H14.3798ZM22.7452 13.5938L21.2452 17.3438H20.4459L22.3209 13.5938H22.7452ZM17.1581 16.3275C17.3724 16.3795 17.592 16.406 17.8125 16.4063C19.2033 16.4063 20.3583 15.3905 20.5828 14.0625H21.0384L19.3978 17.3438H16.2272L14.5866 14.0625H15.0436C15.0951 14.3827 15.2026 14.6914 15.3614 14.9742C15.4229 15.0823 15.5249 15.1614 15.6448 15.1943C15.7647 15.2272 15.8927 15.2111 16.0008 15.1495C16.1088 15.088 16.188 14.9861 16.2209 14.8662C16.2537 14.7463 16.2376 14.6182 16.1761 14.5102C16.0185 14.2305 15.9363 13.9147 15.9375 13.5938V13.1986C16.5284 13.4586 17.1669 13.593 17.8125 13.5933H17.8144C18.4706 13.5933 19.1044 13.4578 19.688 13.2042V13.5938C19.688 14.6278 18.847 15.4688 17.813 15.4688C17.6681 15.4688 17.5223 15.4514 17.3798 15.4167C17.32 15.4022 17.258 15.3995 17.1971 15.409C17.1363 15.4184 17.0779 15.4397 17.0254 15.4717C16.9728 15.5037 16.927 15.5457 16.8907 15.5954C16.8543 15.6451 16.8282 15.7015 16.8136 15.7613C16.799 15.8211 16.7964 15.8831 16.8058 15.944C16.8153 16.0048 16.8366 16.0632 16.8686 16.1157C16.9006 16.1683 16.9426 16.2141 16.9923 16.2504C17.042 16.2868 17.0983 16.3129 17.1581 16.3275Z" fill="white"/>
<path d="M19.6875 8.4375C19.9464 8.4375 20.1562 8.22763 20.1562 7.96875C20.1562 7.70987 19.9464 7.5 19.6875 7.5C19.4286 7.5 19.2188 7.70987 19.2188 7.96875C19.2188 8.22763 19.4286 8.4375 19.6875 8.4375Z" fill="white"/>
<path d="M15.9375 8.4375C16.1964 8.4375 16.4062 8.22763 16.4062 7.96875C16.4062 7.70987 16.1964 7.5 15.9375 7.5C15.6786 7.5 15.4688 7.70987 15.4688 7.96875C15.4688 8.22763 15.6786 8.4375 15.9375 8.4375Z" fill="white"/>
<path d="M17.8125 11.2083C18.4058 11.2082 18.9857 11.0322 19.4789 10.7026C19.5767 10.6312 19.6432 10.5249 19.6644 10.4057C19.6856 10.2865 19.6599 10.1638 19.5928 10.0631C19.5256 9.96236 19.4221 9.89152 19.3039 9.86534C19.1857 9.83915 19.062 9.85965 18.9586 9.92256C18.6193 10.1494 18.2204 10.2706 17.8123 10.2706C17.4041 10.2706 17.0052 10.1494 16.6659 9.92256C16.6147 9.88839 16.5573 9.86465 16.4969 9.85269C16.4365 9.84072 16.3743 9.84077 16.314 9.85283C16.2536 9.86489 16.1962 9.88872 16.145 9.92296C16.0939 9.9572 16.0499 10.0012 16.0158 10.0524C15.9816 10.1036 15.9579 10.1611 15.9459 10.2215C15.9339 10.2818 15.934 10.344 15.9461 10.4044C15.9581 10.4647 15.9819 10.5222 16.0162 10.5733C16.0504 10.6245 16.0944 10.6684 16.1456 10.7026C16.6391 11.0321 17.2191 11.2081 17.8125 11.2083ZM20.625 22.5001H15C14.8757 22.5001 14.7565 22.5494 14.6685 22.6374C14.5806 22.7253 14.5312 22.8445 14.5312 22.9688V27.6563C14.5312 27.7806 14.5806 27.8999 14.6685 27.9878C14.7565 28.0757 14.8757 28.1251 15 28.1251C15.1243 28.1251 15.2435 28.0757 15.3315 27.9878C15.4194 27.8999 15.4688 27.7806 15.4688 27.6563V23.4376H20.1562V27.6563C20.1562 27.7806 20.2056 27.8999 20.2935 27.9878C20.3815 28.0757 20.5007 28.1251 20.625 28.1251C20.7493 28.1251 20.8685 28.0757 20.9565 27.9878C21.0444 27.8999 21.0938 27.7806 21.0938 27.6563V22.9688C21.0938 22.8445 21.0444 22.7253 20.9565 22.6374C20.8685 22.5494 20.7493 22.5001 20.625 22.5001Z" fill="white"/>
</svg>
