<svg width="16" height="16" viewBox="0 0 16 16" fill="none" xmlns="http://www.w3.org/2000/svg">
<path d="M13.3327 6.66536C13.3327 10.6654 7.99935 14.6654 7.99935 14.6654C7.99935 14.6654 2.66602 10.6654 2.66602 6.66536C2.66602 5.25088 3.22792 3.89432 4.22811 2.89413C5.22831 1.89393 6.58486 1.33203 7.99935 1.33203C9.41384 1.33203 10.7704 1.89393 11.7706 2.89413C12.7708 3.89432 13.3327 5.25088 13.3327 6.66536Z" stroke="#4B5563" stroke-width="1.33333" stroke-linecap="round" stroke-linejoin="round"/>
<path d="M8 8.66797C9.10457 8.66797 10 7.77254 10 6.66797C10 5.5634 9.10457 4.66797 8 4.66797C6.89543 4.66797 6 5.5634 6 6.66797C6 7.77254 6.89543 8.66797 8 8.66797Z" stroke="#4B5563" stroke-width="1.33333" stroke-linecap="round" stroke-linejoin="round"/>
</svg>
