<svg width="20" height="20" viewBox="0 0 20 20" fill="none" xmlns="http://www.w3.org/2000/svg">
<path d="M7.7 9.30003C7.3 8.90003 6.7 8.90003 6.3 9.30003C5.9 9.70003 5.9 10.3 6.3 10.7L9.3 13.7C9.5 13.9 9.7 14 10 14C10.3 14 10.5 13.9 10.7 13.7L17.7 5.70003C18 5.20003 18 4.60003 17.5 4.30003C17.1 4.00003 16.5 4.00003 16.2 4.40003L10 11.5L7.7 9.30003Z" fill="#02BC7D"/>
<path d="M19 9C18.4 9 18 9.4 18 10C18 14.4 14.4 18 10 18C5.6 18 2 14.4 2 10C2 7.9 2.8 5.9 4.3 4.4C5.8 2.8 7.8 2 10 2C10.6 2 11.3 2.1 11.9 2.2C12.4 2.4 13 2.1 13.2 1.5C13.4 0.9 13 0.5 12.5 0.3H12.4C11.6 0.1 10.8 0 10 0C4.5 0 0 4.5 0 10.1C0 12.7 1.1 15.3 2.9 17.1C4.8 19 7.3 20 9.9 20C15.4 20 19.9 15.5 19.9 10C20 9.4 19.5 9 19 9Z" fill="#02BC7D"/>
</svg>
