<svg width="68" height="78" viewBox="0 0 68 78" fill="none" xmlns="http://www.w3.org/2000/svg">
<path d="M32.5113 44.8286L31.1 46.1121C29.0453 47.9852 27.4523 50.3088 26.4461 52.9007L22.0039 64.383C21.5898 65.4572 21.6186 66.6518 22.0841 67.7048C22.5496 68.7577 23.4138 69.583 24.487 69.9996L39.6739 75.8749C40.7481 76.2891 41.9427 76.2603 42.9956 75.7948C44.0486 75.3293 44.8739 74.4651 45.2905 73.3919L50.1866 60.7361C51.393 57.6182 52.15 54.3446 52.4347 51.0136L53.7401 35.7549L55.2509 31.8496C55.4768 31.2763 55.9087 30.8081 56.462 30.5369C57.0153 30.2657 57.6499 30.2111 58.2415 30.3837C58.5028 30.4608 58.7836 30.4368 59.0281 30.3165C59.2726 30.1962 59.4629 29.9883 59.5613 29.7342C60.2602 27.9215 60.2115 25.9056 59.426 24.1288C58.6404 22.3519 57.1822 20.9592 55.3711 20.2562L39.1717 13.9892C38.9032 13.8853 38.6044 13.8923 38.3411 14.0088C38.0778 14.1252 37.8715 14.3414 37.7676 14.61L36.2008 18.6598C36.0969 18.9283 36.104 19.2271 36.2204 19.4904C36.3368 19.7538 36.5531 19.9601 36.8216 20.0639L39.8262 21.2263C38.5874 23.9312 36.6909 26.2828 34.3099 28.0666L30.4579 30.953C30.3028 31.0692 30.1817 31.2248 30.1071 31.4036C30.0324 31.5825 30.007 31.778 30.0335 31.97C30.0599 32.1619 30.1373 32.3433 30.2575 32.4953C30.3777 32.6473 30.5365 32.7643 30.7172 32.8342L34.767 34.401C34.9282 34.4633 35.1019 34.4863 35.2737 34.468C35.4456 34.4497 35.6105 34.3906 35.7549 34.2957L38.9298 32.2092C40.3357 31.2868 41.6084 30.1759 42.7122 28.9075L41.7878 31.2971C39.782 36.4634 36.6069 41.095 32.5113 44.8286ZM48.1617 59.9527L43.2656 72.6085C43.0572 73.1451 42.6446 73.5771 42.1181 73.8099C41.5916 74.0426 40.9944 74.0571 40.4573 73.85L25.2704 67.9747C24.7338 67.7664 24.3017 67.3537 24.069 66.8273C23.8362 66.3008 23.8218 65.7035 24.0288 65.1664L28.471 53.6841C29.3553 51.4066 30.755 49.3649 32.5605 47.7189L33.9719 46.4353C38.0456 42.7211 41.2645 38.1669 43.4062 33.0872L51.5207 36.2264L50.2715 50.8285C50.0042 53.9545 49.2938 57.0267 48.1617 59.9527ZM52.0509 34.1036L44.2044 31.068L44.9877 29.0431L52.8343 32.0787L52.0509 34.1036ZM57.7808 28.118C56.9949 28.0821 56.2126 28.245 55.5062 28.5917C54.7999 28.9383 54.1924 29.4574 53.7399 30.1011L44.7587 26.6265L46.3254 22.5767C46.4293 22.3082 46.4222 22.0094 46.3058 21.746C46.1894 21.4827 45.9732 21.2764 45.7046 21.1725L42.6673 19.9975L43.4506 17.9725L54.5877 22.2811C55.7224 22.7218 56.665 23.5491 57.2492 24.617C57.8334 25.6849 58.0217 26.9248 57.7808 28.118ZM39.4008 16.4058L41.4257 17.1892L40.6423 19.2141L38.6174 18.4307L39.4008 16.4058ZM37.7375 30.3948L35.0294 32.1745L33.3273 31.516L35.6119 29.8041C38.3193 27.7769 40.4679 25.0958 41.8566 22.0118L43.9088 22.8058C42.688 25.9139 40.5315 28.5659 37.7375 30.3948Z" fill="#BFCED9"/>
<path d="M44.4701 54.4507L35.3579 50.9255C34.8208 50.7184 34.2235 50.7329 33.6971 50.9656C33.1706 51.1984 32.758 51.6304 32.5496 52.167L27.8494 64.3165C27.6423 64.8536 27.6568 65.4509 27.8895 65.9774C28.1223 66.5038 28.5543 66.9165 29.0909 67.1248L38.203 70.65C38.7401 70.8571 39.3374 70.8426 39.8639 70.6099C40.3904 70.3771 40.803 69.9451 41.0113 69.4085L45.7116 57.259C45.9186 56.7219 45.9042 56.1246 45.6715 55.5981C45.4387 55.0716 45.0067 54.659 44.4701 54.4507ZM38.9864 68.6251L29.8743 65.0999L34.5746 52.9504L43.6867 56.4756L38.9877 68.6256L38.9864 68.6251ZM27.4249 3.36917L29.3023 2.27732L30.6327 4.56508L28.7553 5.65693L27.4249 3.36917ZM32.7495 12.5187L34.6269 11.4268L35.9574 13.7146L34.08 14.8065L32.7495 12.5187ZM30.0873 7.94381L31.9647 6.85196L33.2953 9.13977L31.4179 10.2316L30.0873 7.94381ZM29.8459 12.7094L32.3134 13.6639L31.53 15.6889L29.0625 14.7343L29.8459 12.7094ZM24.911 10.8002L27.3785 11.7548L26.5952 13.7797L24.1277 12.8251L24.911 10.8002ZM19.9761 8.89103L22.4436 9.84562L21.6602 11.8705L19.1927 10.9159L19.9761 8.89103ZM20.99 20.0138L23.5137 19.2171L24.1675 21.2882L21.6438 22.0848L20.99 20.0138ZM31.0828 16.8259L33.6067 16.0293L34.2604 18.1004L31.7366 18.897L31.0828 16.8259ZM26.0365 18.4201L28.5603 17.6234L29.214 19.6944L26.6903 20.4911L26.0365 18.4201ZM47.613 47.5677C47.4709 47.5566 47.328 47.5737 47.1924 47.6179C47.0569 47.662 46.9314 47.7325 46.823 47.8252C46.7147 47.9179 46.6257 48.031 46.5611 48.1581C46.4965 48.2852 46.4576 48.4237 46.4465 48.5659L46.3586 49.6958C46.3464 49.8386 46.3626 49.9823 46.4062 50.1188C46.4498 50.2552 46.52 50.3817 46.6128 50.4909C46.7055 50.6001 46.8189 50.6899 46.9465 50.755C47.0741 50.8202 47.2133 50.8594 47.3562 50.8705C47.499 50.8816 47.6426 50.8643 47.7787 50.8196C47.9149 50.775 48.0408 50.7038 48.1493 50.6102C48.2577 50.5167 48.3466 50.4025 48.4108 50.2745C48.475 50.1464 48.5132 50.0069 48.5232 49.8639L48.6111 48.734C48.6334 48.447 48.5408 48.1629 48.3536 47.9441C48.1664 47.7254 47.9 47.59 47.613 47.5677ZM48.2287 39.6579C48.0865 39.6469 47.9436 39.6639 47.8081 39.7081C47.6725 39.7523 47.547 39.8227 47.4387 39.9154C47.3304 40.0081 47.2414 40.1212 47.1768 40.2483C47.1122 40.3754 47.0732 40.514 47.0622 40.6561L46.7104 45.176C46.6982 45.3187 46.7144 45.4625 46.758 45.5989C46.8016 45.7354 46.8718 45.8618 46.9646 45.971C47.0573 46.0802 47.1707 46.17 47.2983 46.2351C47.4259 46.3003 47.5651 46.3396 47.708 46.3506C47.8508 46.3617 47.9944 46.3445 48.1305 46.2998C48.2667 46.2551 48.3926 46.1839 48.5011 46.0904C48.6095 45.9968 48.6984 45.8827 48.7626 45.7546C48.8268 45.6265 48.865 45.487 48.875 45.3441L49.2268 40.8242C49.249 40.5372 49.1564 40.2531 48.9692 40.0344C48.7821 39.8157 48.5157 39.6803 48.2287 39.6579Z" fill="#BFCED9"/>
</svg>
