<svg width="88" height="92" viewBox="0 0 88 92" fill="none" xmlns="http://www.w3.org/2000/svg">
<path d="M33.085 62.5192C33.0285 62.184 32.8411 61.885 32.564 61.6879C32.287 61.4909 31.9431 61.412 31.6079 61.4685C31.2727 61.5251 30.9737 61.7125 30.7766 61.9895C30.5796 62.2665 30.5007 62.6105 30.5572 62.9457C31.4761 68.3913 32.7275 73.4689 33.399 76.0388C31.4976 75.7391 29.6167 75.321 27.7674 74.7869C27.5022 74.6643 27.4172 73.9431 27.3194 73.6876C26.9356 72.0898 26.9009 70.4281 27.2178 68.8158C27.2913 68.4881 27.2332 68.1447 27.056 67.8594C26.8789 67.5742 26.5968 67.3699 26.2706 67.2905C25.9443 67.2111 25.5999 67.2629 25.3115 67.4349C25.0231 67.6068 24.8137 67.8851 24.7284 68.2099C24.418 69.7277 24.3595 71.2863 24.5553 72.8231C21.6451 72.3504 18.8528 71.3225 16.3308 69.7953C15.9072 64.4753 20.2273 59.3473 20.272 59.2943C20.4886 59.0361 20.5948 58.7029 20.5674 58.3669C20.5401 58.031 20.3814 57.7194 20.1259 57.4996C19.8703 57.2798 19.5385 57.1695 19.2022 57.1927C18.866 57.2159 18.5524 57.3707 18.3295 57.6235C16.0577 60.3757 14.5222 63.6597 13.8667 67.1677C12.2196 66.2379 10.6977 65.1019 9.33802 63.7871C11.0468 59.8989 13.7631 56.5376 17.2061 54.0509C17.478 53.8564 17.6632 53.5634 17.7221 53.2344C17.781 52.9054 17.709 52.5663 17.5214 52.2896C17.3338 52.0129 17.0455 51.8205 16.7181 51.7534C16.3906 51.6863 16.0498 51.7499 15.7686 51.9305C12.2584 54.4456 9.41043 57.7742 7.46878 61.6313C6.74948 60.6454 6.21533 59.537 5.89237 58.3602C10.5926 51.3492 22.3738 46.923 25.0429 45.9913L29.5063 48.8924C29.3591 51.492 29.4264 54.0992 29.7076 56.6878C29.7194 56.8587 29.7653 57.0255 29.8427 57.1783C29.9201 57.3312 30.0273 57.4669 30.1581 57.5776C30.2889 57.6883 30.4405 57.7716 30.604 57.8227C30.7675 57.8737 30.9396 57.8915 31.1101 57.8749C31.2807 57.8582 31.4461 57.8076 31.5967 57.7259C31.7473 57.6443 31.88 57.5332 31.9869 57.3994C32.0938 57.2655 32.1728 57.1116 32.2192 56.9467C32.2656 56.7818 32.2785 56.6092 32.257 56.4393C31.9902 54.008 31.9185 51.5592 32.0426 49.1165L39.1775 46.2703C39.4016 46.1772 39.595 46.0227 39.7352 45.8246C39.8755 45.6266 39.9571 45.3929 39.9706 45.1506C39.9841 44.9083 39.9289 44.6671 39.8115 44.4546C39.6941 44.2422 39.5191 44.0673 39.3067 43.9498L36.538 42.4701C39.1017 39.1184 41.8345 35.8995 44.7256 32.8259C51.1946 25.9701 57.1734 21.3255 62.017 19.3944C63.8947 18.4126 62.1573 15.3012 60.9682 14.3595C60.3247 13.8393 59.5702 13.474 58.763 13.2919C57.9559 13.1097 57.1176 13.1156 56.3131 13.309C52.677 14.7966 49.3286 16.9075 46.4187 19.5468C46.1595 19.7666 45.9982 20.0803 45.9703 20.419C45.9425 20.7577 46.0503 21.0936 46.2701 21.3528C46.4898 21.612 46.8036 21.7733 47.1423 21.8012C47.481 21.8291 47.8169 21.7213 48.0761 21.5015C50.6856 19.1703 53.6386 17.2551 56.8313 15.8231C57.4782 15.6355 58.1717 15.6953 58.7769 15.9911C59.382 16.2868 59.8554 16.7972 60.1048 17.4228C55.0655 19.6918 49.2682 24.2755 42.8612 31.0679C39.814 34.2963 36.9452 37.6886 34.2674 41.2295C33.3641 40.8251 32.5466 40.2516 31.8588 39.5401C35.5658 34.4286 39.6665 29.6146 44.1237 25.1422C44.366 24.9035 44.5036 24.5783 44.5062 24.2382C44.5088 23.8981 44.3762 23.5709 44.1375 23.3286C43.8988 23.0863 43.5737 22.9487 43.2336 22.9461C42.8935 22.9435 42.5663 23.0761 42.3239 23.3148C37.8538 27.7997 33.7345 32.621 30.0022 37.7364L26.2829 34.1235C26.1021 33.9539 25.8763 33.84 25.6324 33.7954C25.3886 33.7507 25.137 33.7773 24.9079 33.8719C24.6787 33.9665 24.4817 34.1251 24.3403 34.3287C24.1989 34.5324 24.1192 34.7724 24.1107 35.0202L23.9542 43.652C20.8101 44.8558 6.86955 49.9613 3.26425 58.2003C3.19566 58.31 3.67091 61.5303 6.95089 65.0397C8.93023 67.0797 11.2397 68.7711 13.7819 70.0426C13.7512 70.3339 13.791 70.6283 13.8978 70.9011C14.0046 71.1739 14.1753 71.417 14.3956 71.6101C15.5456 72.3472 16.751 72.994 18.001 73.5446C20.2701 74.6001 22.7076 75.2471 25.2015 75.4559C25.2295 75.5316 25.2496 75.6093 25.2792 75.6842C25.439 76.0662 25.6843 76.4065 25.9963 76.6787C26.3082 76.951 26.6785 77.148 27.0786 77.2547C29.7005 78.0664 32.4106 78.5593 35.1504 78.7229C35.344 78.7145 35.5333 78.6626 35.7042 78.5709C35.875 78.4792 36.0229 78.3502 36.137 78.1934C36.251 78.0367 36.3283 77.8562 36.3629 77.6655C36.3975 77.4747 36.3887 77.2786 36.3371 77.0918C36.3174 77.0227 34.3683 70.138 33.085 62.5192ZM29.2303 40.56C31.0886 42.3965 33.2719 43.8718 35.6691 44.9108L30.9686 46.7852L26.5129 43.8889L26.6187 38.0209L29.2303 40.56Z" fill="#BFCED9"/>
<path d="M53.1686 46.808C52.3018 46.2836 51.2983 46.0295 50.2864 46.0779C49.2744 46.1263 48.2998 46.4752 47.487 47.0799C45.6847 48.5752 44.8096 50.3945 46.4452 51.1342C48.1682 51.4892 47.706 50.1325 49.0141 49.1378C49.4446 48.8446 49.9501 48.6809 50.4707 48.6662C50.9913 48.6515 51.5053 48.7863 51.9516 49.0548C52.3979 49.3232 52.758 49.714 52.989 50.1808C53.22 50.6476 53.3124 51.1708 53.2551 51.6885C53.1208 52.6247 52.4921 53.8258 53.6996 54.3772C53.8644 54.4509 54.0429 54.4889 54.2234 54.4887C54.404 54.4885 54.5824 54.4502 54.7471 54.3762C54.9117 54.3023 55.0589 54.1944 55.179 54.0596C55.2991 53.9248 55.3893 53.7661 55.4437 53.594C55.9492 52.379 55.9972 51.022 55.5789 49.7743C55.1606 48.5266 54.3043 47.4728 53.1686 46.808ZM45.8306 66.1433C45.1397 65.6746 44.3558 65.3603 43.5323 65.2218C42.7089 65.0834 41.8653 65.1241 41.0591 65.3412C40.8978 65.3893 40.7475 65.4686 40.6169 65.5747C40.4863 65.6809 40.3778 65.8117 40.2978 65.9597C40.2177 66.1077 40.1676 66.2701 40.1502 66.4375C40.1329 66.6049 40.1487 66.7741 40.1968 66.9354C40.2448 67.0967 40.3242 67.2469 40.4303 67.3776C40.5365 67.5082 40.6673 67.6166 40.8153 67.6967C40.9633 67.7768 41.1257 67.8269 41.2931 67.8442C41.4605 67.8615 41.6297 67.8457 41.791 67.7977C42.2135 67.6885 42.6539 67.6674 43.0849 67.7359C43.5159 67.8044 43.9281 67.961 44.2959 68.1958C44.6163 68.4893 44.8534 68.8622 44.9833 69.2769C45.1132 69.6915 45.1312 70.133 45.0356 70.5569C44.94 70.9807 44.7342 71.3717 44.4389 71.6905C44.1436 72.0092 43.7694 72.2442 43.3541 72.3718C43.1297 72.4743 42.9394 72.6389 42.8057 72.8461C42.672 73.0534 42.6005 73.2946 42.5997 73.5413C42.5989 73.7879 42.6688 74.0296 42.8011 74.2378C42.9334 74.4459 43.1226 74.6118 43.3463 74.7157C45.0872 75.1881 46.9375 72.9566 47.4247 71.5409C47.7633 70.5882 47.7914 69.5527 47.505 68.583C47.2186 67.6133 46.6325 66.7592 45.8306 66.1433ZM64.3881 70.474C64.9481 69.8971 65.3847 69.2122 65.6713 68.4611C65.9579 67.7099 66.0885 66.9082 66.0551 66.1049C66.0217 65.3017 65.825 64.5136 65.477 63.7888C65.129 63.0641 64.637 62.4178 64.031 61.8894C63.1676 61.1947 62.1295 60.7513 61.0306 60.6076C59.9318 60.464 58.8146 60.6257 57.8016 61.075C57.5002 61.2211 57.2681 61.4794 57.1548 61.7946C57.0415 62.1098 57.0562 62.4567 57.1956 62.7612C57.335 63.0657 57.5881 63.3036 57.9007 63.4238C58.2133 63.544 58.5605 63.537 58.868 63.4044C59.4341 63.1581 60.0556 63.0674 60.6685 63.1416C61.2813 63.2158 61.8633 63.4522 62.3542 63.8265C63.9946 65.1591 63.9228 68.2249 61.8825 69.1089C61.6856 69.2045 61.5162 69.3487 61.3904 69.5278C61.2645 69.707 61.1863 69.9152 61.1631 70.1329C61.1399 70.3505 61.1725 70.5706 61.2578 70.7722C61.3431 70.9738 61.4783 71.1504 61.6506 71.2854C62.2927 71.7672 62.7407 72.4633 62.9134 73.2473C63.0862 74.0313 62.9721 74.8512 62.5919 75.5582C60.5749 79.009 55.9871 78.119 55.1339 73.8939C55.0387 73.5709 54.8201 73.2983 54.5255 73.1352C54.2309 72.9721 53.8839 72.9315 53.5596 73.0222C53.2353 73.113 52.9597 73.3278 52.7926 73.6202C52.6254 73.9125 52.5801 74.2589 52.6664 74.5845C55.592 85.4996 69.7354 78.6381 64.3881 70.474Z" fill="#BFCED9"/>
</svg>
