<svg width="181" height="181" viewBox="0 0 181 181" fill="none" xmlns="http://www.w3.org/2000/svg">
<path d="M88.6966 92.6097C88.485 93.0517 88.2976 93.5056 88.1388 93.9701C87.0734 97.4532 87.3208 101.206 88.8343 104.519C90.8247 109.467 95.6085 127.979 73.385 158.274C73.0243 158.753 72.7679 159.303 72.6324 159.887C72.4968 160.472 72.485 161.078 72.5978 161.667C72.7105 162.248 72.9439 162.799 73.2829 163.283C73.6219 163.768 74.059 164.176 74.5657 164.481C77.2754 166.012 80.2895 166.926 83.393 167.158C83.6583 167.232 83.9372 167.254 84.2114 167.224C89.8788 167.404 95.5091 166.248 100.647 163.849C100.704 163.824 100.761 163.806 100.817 163.777C103.3 162.692 105.708 161.442 108.026 160.036C112.124 157.551 115.993 154.706 119.588 151.537C119.66 151.488 119.729 151.437 119.795 151.38C119.812 151.363 119.818 151.336 119.833 151.321C120.771 150.481 121.709 149.613 122.627 148.69C128.452 142.841 133.697 135.216 134.995 126.193C137.053 125.799 138.98 124.894 140.596 123.56C142.213 122.227 143.468 120.508 144.245 118.562C146.671 118.692 149.097 118.33 151.379 117.498C153.661 116.666 155.751 115.381 157.524 113.721C159.296 112.06 160.715 110.059 161.694 107.836C162.673 105.613 163.193 103.216 163.222 100.787C165.039 100.131 166.698 99.1018 168.093 97.7662C169.489 96.4306 170.59 94.8179 171.325 93.0316C172.06 91.2454 172.414 89.3251 172.363 87.3941C172.312 85.4632 171.858 83.5642 171.03 81.8191C170.202 80.074 169.017 78.5214 167.554 77.2611C166.09 76.0008 164.379 75.0605 162.53 74.5007C160.681 73.9409 158.736 73.7739 156.819 74.0105C154.901 74.2471 153.055 74.8821 151.398 75.8746C148.957 74.5303 146.211 73.8356 143.424 73.8574C140.637 73.8791 137.903 74.6164 135.483 75.9987C133.063 77.3809 131.039 79.3616 129.604 81.751C128.17 84.1404 127.373 86.8582 127.291 89.6438C124.673 90.3969 122.391 92.023 120.825 94.252C118.293 91.9745 115.628 89.8495 112.843 87.8881C109.48 85.4994 105.396 84.3429 101.28 84.6133L67.6397 35.0727C67.0997 34.2634 66.4044 33.5694 65.5941 33.031C64.7839 32.4925 63.8747 32.1203 62.9194 31.936C61.4692 31.6455 59.9653 31.7935 58.5995 32.361C57.2338 32.9286 56.0679 33.8901 55.2507 35.1228C54.4335 36.3556 54.0019 37.8037 54.0109 39.2827C54.02 40.7618 54.4693 42.2046 55.3015 43.4272L88.6966 92.6097ZM129.752 93.4664C130.294 93.3918 130.787 93.1114 131.128 92.6834C131.469 92.2555 131.633 91.7127 131.584 91.1675C131.388 88.9096 131.835 86.6422 132.873 84.6276C133.911 82.613 135.499 80.9336 137.451 79.7836C139.404 78.6335 141.643 78.06 143.908 78.1292C146.174 78.1984 148.373 78.9076 150.252 80.1748C150.621 80.4225 151.058 80.5489 151.501 80.5364C151.945 80.5238 152.374 80.373 152.728 80.1048C153.871 79.2402 155.193 78.6428 156.598 78.3564C158.002 78.07 159.452 78.102 160.843 78.45C162.233 78.798 163.527 79.4531 164.631 80.3673C165.735 81.2814 166.62 82.4313 167.221 83.7324C167.821 85.0335 168.123 86.4527 168.103 87.8857C168.083 89.3187 167.743 90.729 167.106 92.013C166.469 93.297 165.553 94.422 164.425 95.3053C163.296 96.1886 161.984 96.8077 160.585 97.1171C160.082 97.2287 159.637 97.5186 159.331 97.9331C159.026 98.3476 158.88 98.8587 158.923 99.3719C159.102 101.452 158.807 103.545 158.058 105.493C157.309 107.442 156.126 109.194 154.6 110.618C153.073 112.042 151.243 113.099 149.247 113.711C147.251 114.322 145.142 114.472 143.08 114.147C142.549 114.064 142.006 114.185 141.56 114.485C141.114 114.786 140.798 115.244 140.676 115.768C140.408 116.915 139.897 117.992 139.179 118.927C138.461 119.861 137.552 120.631 136.512 121.185C135.472 121.739 134.325 122.065 133.149 122.14C131.973 122.215 130.795 122.038 129.693 121.621C128.591 121.204 127.591 120.556 126.759 119.721C125.928 118.886 125.285 117.882 124.873 116.778C124.461 115.674 124.289 114.495 124.37 113.319C124.451 112.144 124.782 110.999 125.341 109.962C125.556 109.561 125.637 109.102 125.573 108.652C125.508 108.203 125.302 107.785 124.983 107.461C123.465 105.902 122.619 103.81 122.626 101.634C122.634 99.4587 123.494 97.3726 125.022 95.824C126.295 94.5373 127.958 93.7083 129.752 93.4664ZM120.957 109.323C120.081 111.598 119.882 114.078 120.384 116.464C120.886 118.85 122.068 121.04 123.787 122.769C125.665 124.636 128.089 125.856 130.708 126.251C129.484 132.366 126.626 138.035 122.439 142.655C123.298 138.407 123.552 134.059 123.194 129.74C123.142 129.177 122.868 128.658 122.433 128.296C121.998 127.935 121.437 127.761 120.874 127.813C120.31 127.865 119.791 128.139 119.43 128.574C119.068 129.009 118.894 129.57 118.947 130.133C119.39 136.417 118.535 142.725 116.434 148.664C113.122 151.533 109.572 154.115 105.821 156.382C105.484 156.584 105.16 156.743 104.835 156.943C110.111 146.124 114.563 132.147 111.95 118.612C111.836 118.064 111.511 117.583 111.045 117.273C110.579 116.963 110.01 116.849 109.46 116.955C108.911 117.061 108.425 117.379 108.108 117.84C107.791 118.301 107.668 118.868 107.765 119.42C110.596 134.058 104.284 149.563 98.32 160.208C95.1088 161.606 91.7073 162.517 88.2275 162.913C93.2524 156.178 97.1894 148.696 99.8951 140.741C99.9776 140.471 100.006 140.188 99.9778 139.907C99.9499 139.626 99.8665 139.354 99.7326 139.106C99.5986 138.858 99.4167 138.638 99.1974 138.461C98.978 138.284 98.7257 138.152 98.4549 138.072C98.1841 137.993 97.9004 137.969 97.62 138C97.3397 138.031 97.0684 138.118 96.8218 138.255C96.5752 138.392 96.3583 138.577 96.1836 138.798C96.009 139.02 95.88 139.274 95.8042 139.546C93.3189 148.063 87.0137 157.457 83.0179 162.856C80.8296 162.608 78.7152 161.915 76.805 160.819C96.3973 134.106 95.976 115.547 94.0066 106.921C95.1247 106.897 96.2381 106.767 97.3332 106.528C100.925 105.692 104.197 103.83 106.751 101.169C106.921 100.999 107.089 100.83 107.252 100.648C109.418 98.399 111.261 95.8593 112.727 93.1024C114.866 94.7119 116.916 96.4376 118.867 98.269C118.333 100.147 118.244 102.124 118.607 104.043C118.97 105.961 119.775 107.769 120.957 109.323ZM109.169 90.6293C107.866 93.242 106.168 95.6416 104.137 97.739C102.107 100.031 99.4216 101.643 96.4444 102.356C95.2146 102.638 93.948 102.724 92.6912 102.612C91.6696 100.321 91.4893 97.7427 92.1818 95.3316C92.6359 94.0899 93.3468 92.958 94.2679 92.0096C95.189 91.0613 96.2997 90.3178 97.5276 89.8276C99.3963 89.0449 101.422 88.7097 103.443 88.8489C105.464 88.9881 107.425 89.5978 109.169 90.6293ZM58.8273 41.0314C58.3558 40.3343 58.1782 39.4793 58.3331 38.6521C58.488 37.8249 58.9628 37.0921 59.6545 36.6128C60.3693 36.1276 61.2475 35.9494 62.0948 36.1165C62.9179 36.2745 63.6422 36.7582 64.1063 37.455L96.7789 85.5871C96.4446 85.7084 96.0982 85.8115 95.7775 85.9524C94.1422 86.6847 92.6466 87.6959 91.3578 88.9408L58.8273 41.0314Z" fill="#BFCED9"/>
<path d="M140.079 90.4326C140.021 89.7781 140.15 89.1207 140.451 88.5366C140.752 87.9524 141.212 87.4654 141.778 87.1318C142.344 86.7983 142.992 86.6319 143.649 86.6518C144.306 86.6718 144.943 86.8774 145.488 87.2447C145.957 87.5609 146.532 87.6778 147.087 87.5698C147.642 87.4619 148.132 87.1378 148.448 86.6689C148.764 86.2001 148.881 85.6248 148.773 85.0697C148.665 84.5146 148.341 84.0251 147.872 83.709C146.66 82.8921 145.241 82.4352 143.779 82.391C142.318 82.3468 140.874 82.7172 139.614 83.4592C138.355 84.2013 137.331 85.2848 136.661 86.5843C135.991 87.8839 135.703 89.3465 135.83 90.803C135.879 91.3665 136.15 91.8873 136.583 92.251C137.016 92.6146 137.576 92.7913 138.14 92.7422C138.703 92.6931 139.224 92.4222 139.588 91.989C139.951 91.5559 140.128 90.996 140.079 90.4326ZM130.089 63.9776C131.49 65.3736 133.389 66.1555 135.367 66.1514C137.346 66.1473 139.241 65.3575 140.637 63.9558C142.033 62.554 142.815 60.6552 142.811 58.6769C142.807 56.6987 142.017 54.8031 140.615 53.4071C139.214 52.0112 137.315 51.2293 135.336 51.2334C133.358 51.2375 131.463 52.0273 130.067 53.429C128.671 54.8307 127.889 56.7296 127.893 58.7079C127.897 60.6861 128.687 62.5817 130.089 63.9776ZM137.608 56.4273C138.208 57.0255 138.547 57.8379 138.549 58.6858C138.55 59.5336 138.215 60.3474 137.617 60.9481C137.019 61.5489 136.206 61.8873 135.359 61.8891C134.511 61.8909 133.697 61.5558 133.096 60.9575C132.495 60.3592 132.157 59.5468 132.155 58.699C132.153 57.8512 132.489 57.0374 133.087 56.4367C133.685 55.8359 134.497 55.4974 135.345 55.4957C136.193 55.4939 137.007 55.829 137.608 56.4273ZM120.292 63.2445C121.488 62.043 122.159 60.4154 122.155 58.7198C122.152 57.0241 121.475 55.3993 120.273 54.2028C119.072 53.0063 117.444 52.3361 115.748 52.3396C114.053 52.3431 112.428 53.0201 111.231 54.2215C110.035 55.423 109.365 57.0506 109.368 58.7463C109.372 60.4419 110.049 62.0667 111.25 63.2632C112.452 64.4597 114.079 65.1299 115.775 65.1264C117.471 65.1229 119.095 64.446 120.292 63.2445ZM114.252 57.2292C114.65 56.8287 115.192 56.603 115.757 56.6019C116.322 56.6007 116.865 56.8241 117.265 57.2229C117.666 57.6218 117.892 58.1634 117.893 58.7286C117.894 59.2938 117.671 59.8363 117.272 60.2368C116.873 60.6373 116.331 60.863 115.766 60.8642C115.201 60.8653 114.658 60.6419 114.258 60.2431C113.857 59.8442 113.632 59.3026 113.63 58.7374C113.629 58.1722 113.853 57.6297 114.252 57.2292ZM45.0508 114.637C45.4496 114.236 45.6731 113.694 45.6719 113.129C45.6707 112.563 45.4451 112.022 45.0446 111.623L42.0244 108.615C41.6239 108.216 41.0814 107.993 40.5162 107.994C39.951 107.995 39.4094 108.221 39.0105 108.622C38.6117 109.022 38.3883 109.565 38.3895 110.13C38.3906 110.695 38.6163 111.237 39.0168 111.635L42.0369 114.643C42.4374 115.042 42.9799 115.265 43.5452 115.264C44.1104 115.263 44.652 115.037 45.0508 114.637ZM54.105 120.646L51.0848 117.638C50.6843 117.239 50.1418 117.016 49.5766 117.017C49.0114 117.018 48.4698 117.244 48.0709 117.644C47.6721 118.045 47.4487 118.588 47.4499 119.153C47.451 119.718 47.6767 120.26 48.0772 120.658L51.0973 123.666C51.4978 124.065 52.0404 124.288 52.6056 124.287C53.1708 124.286 53.7124 124.06 54.1112 123.66C54.5101 123.259 54.7335 122.717 54.7323 122.152C54.7311 121.586 54.5055 121.045 54.105 120.646ZM42.0557 123.685L45.0633 120.665C45.4621 120.264 45.6855 119.722 45.6844 119.156C45.6832 118.591 45.4575 118.05 45.0571 117.651C44.6566 117.252 44.114 117.028 43.5488 117.03C42.9836 117.031 42.442 117.256 42.0432 117.657L39.0355 120.677C38.6367 121.078 38.4133 121.62 38.4144 122.185C38.4156 122.751 38.6413 123.292 39.0418 123.691C39.4423 124.09 39.9848 124.313 40.55 124.312C41.1152 124.311 41.6568 124.085 42.0557 123.685ZM51.0786 114.624L54.0862 111.604C54.4851 111.204 54.7085 110.661 54.7073 110.096C54.7061 109.531 54.4805 108.989 54.08 108.59C53.6795 108.191 53.137 107.968 52.5717 107.969C52.0065 107.97 51.4649 108.196 51.0661 108.597L48.0584 111.617C47.6596 112.017 47.4362 112.56 47.4374 113.125C47.4385 113.69 47.6642 114.232 48.0647 114.631C48.4652 115.029 49.0077 115.253 49.5729 115.252C50.1382 115.25 50.6798 115.025 51.0786 114.624ZM70.0731 128.148L70.0825 132.668C70.0782 132.951 70.1302 133.232 70.2357 133.495C70.3411 133.758 70.4977 133.997 70.6965 134.198C70.8953 134.399 71.1322 134.559 71.3934 134.668C71.6546 134.777 71.9348 134.833 72.2178 134.832C72.5008 134.832 72.7808 134.775 73.0416 134.665C73.3023 134.555 73.5385 134.394 73.7365 134.192C73.9344 133.989 74.0901 133.75 74.1944 133.487C74.2987 133.224 74.3496 132.942 74.3441 132.66L74.3348 128.139C74.3239 127.58 74.094 127.048 73.6947 126.657C73.2953 126.266 72.7584 126.048 72.1996 126.049C71.6408 126.05 71.1048 126.271 70.7071 126.663C70.3093 127.056 70.0817 127.589 70.0731 128.148ZM72.1714 112.45C71.6063 112.451 71.0648 112.677 70.6661 113.077C70.2673 113.478 70.0439 114.02 70.045 114.585L70.0544 119.106C70.05 119.389 70.1021 119.67 70.2075 119.932C70.313 120.195 70.4696 120.434 70.6684 120.635C70.8672 120.837 71.1041 120.997 71.3652 121.106C71.6264 121.214 71.9067 121.27 72.1897 121.27C72.4727 121.269 72.7527 121.212 73.0134 121.102C73.2742 120.992 73.5104 120.831 73.7084 120.629C73.9063 120.427 74.062 120.187 74.1663 119.924C74.2706 119.661 74.3215 119.38 74.316 119.097L74.3067 114.576C74.3054 114.011 74.0797 113.47 73.6793 113.071C73.2789 112.672 72.7365 112.449 72.1714 112.45ZM76.711 121.482C76.1523 121.493 75.6202 121.723 75.2294 122.122C74.8385 122.522 74.6201 123.058 74.6213 123.617C74.6225 124.176 74.843 124.712 75.2356 125.11C75.6281 125.508 76.1611 125.735 76.7198 125.744L81.2407 125.734C81.7994 125.723 82.3314 125.494 82.7223 125.094C83.1131 124.695 83.3315 124.158 83.3304 123.599C83.3292 123.04 83.1086 122.504 82.7161 122.107C82.3236 121.709 81.7906 121.481 81.2318 121.473L76.711 121.482ZM67.6693 121.501L63.1485 121.51C62.5898 121.521 62.0577 121.751 61.6669 122.15C61.276 122.55 61.0576 123.087 61.0588 123.645C61.0599 124.204 61.2805 124.74 61.673 125.138C62.0656 125.536 62.5986 125.763 63.1573 125.772L67.6782 125.762C68.2369 125.752 68.7689 125.522 69.1598 125.122C69.5506 124.723 69.769 124.186 69.7678 123.627C69.7667 123.069 69.5461 122.533 69.1536 122.135C68.7611 121.737 68.2281 121.509 67.6693 121.501ZM32.7861 87.9078L62.8812 66.7481C63.3299 66.4179 63.6314 65.9251 63.7212 65.3753C63.8109 64.8254 63.6819 64.2623 63.3616 63.8065C63.0413 63.3507 62.5552 63.0384 62.0075 62.9366C61.4598 62.8347 60.894 62.9514 60.4312 63.2616L30.3361 84.4213C29.8874 84.7516 29.5859 85.2444 29.4961 85.7942C29.4063 86.344 29.5354 86.9071 29.8557 87.3629C30.176 87.8187 30.6621 88.131 31.2098 88.2329C31.7575 88.3347 32.3233 88.218 32.7861 87.9078ZM68.9278 75.7773C69.3764 75.447 69.6779 74.9542 69.7677 74.4044C69.8575 73.8546 69.7284 73.2915 69.4081 72.8357C69.0878 72.3799 68.6017 72.0676 68.054 71.9658C67.5063 71.8639 66.9405 71.9806 66.4778 72.2908L47.2876 85.7801C46.825 86.1052 46.5106 86.6007 46.4134 87.1577C46.3162 87.7146 46.4442 88.2873 46.7693 88.7499C47.0944 89.2124 47.5899 89.5269 48.1469 89.6241C48.7038 89.7213 49.2765 89.5932 49.7391 89.2681L68.9278 75.7773ZM48.6728 100.469C48.8337 100.698 49.0382 100.893 49.2745 101.043C49.5109 101.193 49.7745 101.295 50.0503 101.343C50.3261 101.391 50.6086 101.384 50.8818 101.323C51.1551 101.262 51.4135 101.148 51.6425 100.987L74.8429 84.6756C75.0718 84.5146 75.2668 84.31 75.4167 84.0736C75.5665 83.8372 75.6684 83.5735 75.7163 83.2978C75.7643 83.022 75.7575 82.7395 75.6963 82.4663C75.6351 82.1932 75.5207 81.9348 75.3597 81.7059C75.1986 81.4769 74.994 81.282 74.7576 81.1321C74.5212 80.9823 74.2576 80.8804 73.9818 80.8324C73.706 80.7844 73.4235 80.7913 73.1504 80.8525C72.8772 80.9137 72.6188 81.028 72.3899 81.1891L49.1865 97.4972C48.9576 97.6585 48.7627 97.8633 48.6129 98.1C48.4632 98.3366 48.3616 98.6005 48.3139 98.8764C48.2661 99.1523 48.2733 99.435 48.3349 99.7082C48.3965 99.9814 48.5113 100.24 48.6728 100.469Z" fill="#BFCED9"/>
</svg>
