<svg width="91" height="91" viewBox="0 0 91 91" fill="none" xmlns="http://www.w3.org/2000/svg">
<path d="M19.7167 0C8.82738 0 0 8.82738 0 19.7167C0.0125125 30.6006 8.83269 39.4208 19.7167 39.4333C30.606 39.4333 39.4333 30.606 39.4333 19.7167C39.4333 8.82738 30.606 0 19.7167 0ZM19.7167 36.4C10.5027 36.4 3.03333 28.9306 3.03333 19.7167C3.04414 10.5073 10.5073 3.04414 19.7167 3.03333C28.9306 3.03333 36.4 10.5027 36.4 19.7167C36.4 28.9306 28.9306 36.4 19.7167 36.4Z" fill="#BFCED9"/>
<path d="M30.3333 19.7166C30.3267 25.5772 25.5773 30.3267 19.7167 30.3333V33.3666C27.2519 33.3583 33.3583 27.2518 33.3667 19.7166H30.3333ZM74.3167 6.06665C65.1027 6.06665 57.6333 13.536 57.6333 22.75C57.6333 31.9639 65.1027 39.4333 74.3167 39.4333C83.5306 39.4333 91 31.9639 91 22.75C90.9892 13.5406 83.5261 6.07746 74.3167 6.06665ZM74.3167 36.4C66.7781 36.4 60.6667 30.2886 60.6667 22.75C60.6667 15.2112 66.7781 9.09998 74.3167 9.09998C81.8555 9.09998 87.9667 15.2112 87.9667 22.75C87.9583 30.2852 81.8519 36.3916 74.3167 36.4Z" fill="#BFCED9"/>
<path d="M63.7003 22.75H66.7336C66.7385 18.564 70.1309 15.1716 74.3169 15.1666V12.1333C68.4563 12.1399 63.7069 16.8894 63.7003 22.75ZM33.3669 57.6333C24.153 57.6333 16.6836 65.1027 16.6836 74.3166C16.6836 83.5306 24.153 91 33.3669 91C42.5809 91 50.0503 83.5306 50.0503 74.3166C50.0395 65.1072 42.5763 57.6441 33.3669 57.6333ZM33.3669 87.9666C25.8283 87.9666 19.7169 81.8552 19.7169 74.3166C19.7169 66.7779 25.8283 60.6666 33.3669 60.6666C40.9057 60.6666 47.0169 66.7779 47.0169 74.3166C47.0086 81.8518 40.9021 87.9583 33.3669 87.9666Z" fill="#BFCED9"/>
<path d="M25.7833 74.3167H22.75C22.7566 80.1772 27.5061 84.9267 33.3667 84.9333V81.9C29.1807 81.8951 25.7883 78.5027 25.7833 74.3167ZM45.5 36.4C40.4741 36.4 36.4 40.4741 36.4 45.5C36.4 50.5258 40.4741 54.6 45.5 54.6C50.5258 54.6 54.6 50.5258 54.6 45.5C54.5951 40.4762 50.5238 36.4049 45.5 36.4ZM45.5 51.5667C42.1495 51.5667 39.4333 48.8505 39.4333 45.5C39.4333 42.1495 42.1495 39.4333 45.5 39.4333C48.8505 39.4333 51.5667 42.1495 51.5667 45.5C51.5667 48.8505 48.8505 51.5667 45.5 51.5667ZM75.8333 51.5667C70.8075 51.5667 66.7333 55.6408 66.7333 60.6667C66.7333 65.6925 70.8075 69.7667 75.8333 69.7667C80.8592 69.7667 84.9333 65.6925 84.9333 60.6667C84.9284 55.6429 80.8571 51.5716 75.8333 51.5667ZM75.8333 66.7333C72.4828 66.7333 69.7667 64.0172 69.7667 60.6667C69.7667 57.3161 72.4828 54.6 75.8333 54.6C79.1838 54.6 81.9 57.3161 81.9 60.6667C81.9 64.0172 79.1838 66.7333 75.8333 66.7333ZM9.09999 47.0167C6.58706 47.0167 4.54999 49.0537 4.54999 51.5667C4.54999 54.0796 6.58706 56.1167 9.09999 56.1167C11.6129 56.1167 13.65 54.0796 13.65 51.5667C13.65 49.0537 11.6129 47.0167 9.09999 47.0167ZM9.09999 53.0833C8.69774 53.0833 8.31197 52.9235 8.02754 52.6391C7.74311 52.3547 7.58332 51.9689 7.58332 51.5667C7.58332 51.1644 7.74311 50.7786 8.02754 50.4942C8.31197 50.2098 8.69774 50.05 9.09999 50.05C9.50223 50.05 9.888 50.2098 10.1724 50.4942C10.4569 50.7786 10.6167 51.1644 10.6167 51.5667C10.6167 51.9689 10.4569 52.3547 10.1724 52.6391C9.888 52.9235 9.50223 53.0833 9.09999 53.0833ZM45.5 4.54999C42.9871 4.54999 40.95 6.58706 40.95 9.09999C40.95 11.6129 42.9871 13.65 45.5 13.65C48.0129 13.65 50.05 11.6129 50.05 9.09999C50.05 6.58706 48.0129 4.54999 45.5 4.54999ZM45.5 10.6167C45.0977 10.6167 44.712 10.4569 44.4275 10.1724C44.1431 9.888 43.9833 9.50223 43.9833 9.09999C43.9833 8.69774 44.1431 8.31197 44.4275 8.02754C44.712 7.74311 45.0977 7.58332 45.5 7.58332C45.9022 7.58332 46.288 7.74311 46.5724 8.02754C46.8569 8.31197 47.0167 8.69774 47.0167 9.09999C47.0167 9.50223 46.8569 9.888 46.5724 10.1724C46.288 10.4569 45.9022 10.6167 45.5 10.6167ZM65.2167 77.35C62.7037 77.35 60.6667 79.3871 60.6667 81.9C60.6667 84.4129 62.7037 86.45 65.2167 86.45C67.7296 86.45 69.7667 84.4129 69.7667 81.9C69.7667 79.3871 67.7296 77.35 65.2167 77.35ZM65.2167 83.4167C64.8144 83.4167 64.4286 83.2569 64.1442 82.9724C63.8598 82.688 63.7 82.3022 63.7 81.9C63.7 81.4977 63.8598 81.112 64.1442 80.8275C64.4286 80.5431 64.8144 80.3833 65.2167 80.3833C65.6189 80.3833 66.0047 80.5431 66.2891 80.8275C66.5735 81.112 66.7333 81.4977 66.7333 81.9C66.7333 82.3022 66.5735 82.688 66.2891 82.9724C66.0047 83.2569 65.6189 83.4167 65.2167 83.4167Z" fill="#BFCED9"/>
</svg>
